<svg width="30" height="30" viewBox="0 0 30 30" fill="none" xmlns="http://www.w3.org/2000/svg">
<path d="M6.49219 23.5078C8.88281 25.8516 11.7188 27.0234 15 27.0234C18.2812 27.0234 21.0938 25.8516 23.4375 23.5078C25.8281 21.1172 27.0234 18.2812 27.0234 15C27.0234 11.7187 25.8281 8.90625 23.4375 6.5625C21.0938 4.17188 18.2812 2.97656 15 2.97656C11.7188 2.97656 8.88281 4.17188 6.49219 6.5625C4.14844 8.90625 2.97656 11.7187 2.97656 15C2.97656 18.2812 4.14844 21.1172 6.49219 23.5078ZM4.38281 4.45312C7.33594 1.5 10.875 0.0234375 15 0.0234375C19.125 0.0234375 22.6406 1.5 25.5469 4.45312C28.5 7.35937 29.9766 10.875 29.9766 15C29.9766 19.125 28.5 22.6641 25.5469 25.6172C22.6406 28.5234 19.125 29.9766 15 29.9766C10.875 29.9766 7.33594 28.5234 4.38281 25.6172C1.47656 22.6641 0.0234375 19.125 0.0234375 15C0.0234375 10.875 1.47656 7.35937 4.38281 4.45312ZM18.8672 9.02344L20.9766 11.1328L17.1094 15L20.9766 18.8672L18.8672 20.9766L15 17.1094L11.1328 20.9766L9.02344 18.8672L12.8906 15L9.02344 11.1328L11.1328 9.02344L15 12.8906L18.8672 9.02344Z" fill="#F55673"/>
</svg>
