<svg width="18" height="18" viewBox="0 0 18 18" fill="none" xmlns="http://www.w3.org/2000/svg">
<path d="M15.4023 5.34766V4.40234H13.5977V7.92578C14.8008 7.49609 15.4023 6.63672 15.4023 5.34766ZM4.40234 7.92578V4.40234H2.59766V5.34766C2.59766 6.63672 3.19922 7.49609 4.40234 7.92578ZM15.4023 2.59766C15.8893 2.59766 16.319 2.78385 16.6914 3.15625C17.0638 3.5 17.25 3.91536 17.25 4.40234V5.34766C17.25 6.49349 16.8633 7.49609 16.0898 8.35547C15.3164 9.21484 14.3568 9.71615 13.2109 9.85938C12.9531 10.4896 12.4948 11.0625 11.8359 11.5781C11.2057 12.0938 10.5612 12.4232 9.90234 12.5664V15.4023H13.5977V17.25H4.40234V15.4023H8.09766V12.5664C7.4388 12.4232 6.77995 12.0938 6.12109 11.5781C5.49089 11.0625 5.04688 10.4896 4.78906 9.85938C3.64323 9.71615 2.68359 9.21484 1.91016 8.35547C1.13672 7.49609 0.75 6.49349 0.75 5.34766V4.40234C0.75 3.91536 0.936198 3.5 1.30859 3.15625C1.68099 2.78385 2.11068 2.59766 2.59766 2.59766H4.40234V0.75H13.5977V2.59766H15.4023Z" fill="#F55673"/>
</svg>
