<svg width="22" height="22" viewBox="0 0 22 22" fill="none" xmlns="http://www.w3.org/2000/svg">
<circle cx="10.9644" cy="10.9688" r="3.5" stroke="#F55673" stroke-width="4"/>
<path d="M10.1357 21.9739C8.20888 21.9739 6.48 21.4988 4.94909 20.5486C3.41817 19.572 2.20399 18.2654 1.30656 16.6289C0.435517 14.966 0 13.092 0 11.0068C0 8.92155 0.47511 7.0475 1.42533 5.3846C2.40195 3.72171 3.70852 2.41515 5.34501 1.46493C7.00791 0.488309 8.86877 0 10.9276 0C12.9864 0 14.8341 0.488309 16.4706 1.46493C18.1071 2.41515 19.4004 3.72171 20.3506 5.3846C21.3273 7.0475 21.8156 8.92155 21.8156 11.0068V19.8359C21.8156 20.4166 21.6176 20.9049 21.2217 21.3009C20.8521 21.6704 20.377 21.8552 19.7964 21.8552C19.2157 21.8552 18.7273 21.6704 18.3314 21.3009C17.9619 20.9049 17.7771 20.4166 17.7771 19.8359V18.371C16.8533 19.4796 15.7315 20.3638 14.4117 21.0237C13.1184 21.6572 11.693 21.9739 10.1357 21.9739ZM10.9276 18.4106C12.2737 18.4106 13.4747 18.0939 14.5305 17.4604C15.5863 16.8005 16.4178 15.9163 17.0249 14.8077C17.6319 13.6727 17.9355 12.4057 17.9355 11.0068C17.9355 9.58143 17.6319 8.31446 17.0249 7.20587C16.4178 6.07088 15.5863 5.18664 14.5305 4.55316C13.4747 3.89328 12.2737 3.56334 10.9276 3.56334C9.60783 3.56334 8.40685 3.89328 7.32465 4.55316C6.26884 5.18664 5.4242 6.07088 4.79072 7.20587C4.18363 8.31446 3.88008 9.58143 3.88008 11.0068C3.88008 12.4057 4.18363 13.6727 4.79072 14.8077C5.4242 15.9163 6.26884 16.8005 7.32465 17.4604C8.40685 18.0939 9.60783 18.4106 10.9276 18.4106Z" fill="#F55673"/>
<path d="M10.1357 21.9739C8.20888 21.9739 6.48 21.4988 4.94909 20.5486C3.41817 19.572 2.20399 18.2654 1.30656 16.6289C0.435517 14.966 0 13.092 0 11.0068C0 8.92155 0.47511 7.0475 1.42533 5.3846C2.40195 3.72171 3.70852 2.41515 5.34501 1.46493C7.00791 0.488309 8.86877 0 10.9276 0C12.9864 0 14.8341 0.488309 16.4706 1.46493C18.1071 2.41515 19.4004 3.72171 20.3506 5.3846C21.3273 7.0475 21.8156 8.92155 21.8156 11.0068V19.8359C21.8156 20.4166 21.6176 20.9049 21.2217 21.3009C20.8521 21.6704 20.377 21.8552 19.7964 21.8552C19.2157 21.8552 18.7273 21.6704 18.3314 21.3009C17.9619 20.9049 17.7771 20.4166 17.7771 19.8359V18.371C16.8533 19.4796 15.7315 20.3638 14.4117 21.0237C13.1184 21.6572 11.693 21.9739 10.1357 21.9739ZM10.9276 18.4106C12.2737 18.4106 13.4747 18.0939 14.5305 17.4604C15.5863 16.8005 16.4178 15.9163 17.0249 14.8077C17.6319 13.6727 17.9355 12.4057 17.9355 11.0068C17.9355 9.58143 17.6319 8.31446 17.0249 7.20587C16.4178 6.07088 15.5863 5.18664 14.5305 4.55316C13.4747 3.89328 12.2737 3.56334 10.9276 3.56334C9.60783 3.56334 8.40685 3.89328 7.32465 4.55316C6.26884 5.18664 5.4242 6.07088 4.79072 7.20587C4.18363 8.31446 3.88008 9.58143 3.88008 11.0068C3.88008 12.4057 4.18363 13.6727 4.79072 14.8077C5.4242 15.9163 6.26884 16.8005 7.32465 17.4604C8.40685 18.0939 9.60783 18.4106 10.9276 18.4106Z" fill="#F55673"/>
</svg>
