<svg width="120" height="38" viewBox="0 0 120 38" fill="none" xmlns="http://www.w3.org/2000/svg">
<circle cx="28.5" cy="17.7002" r="3.5" stroke="#F55673" stroke-width="4"/>
<path d="M50.4157 37.6182C51.5202 37.6182 52.4157 36.7227 52.4157 35.6182C52.4157 34.5136 51.5202 33.6182 50.4157 33.6182V37.6182ZM115.35 37.6182C116.454 37.6182 117.35 36.7227 117.35 35.6182C117.35 34.5136 116.454 33.6182 115.35 33.6182V37.6182ZM5.8623 37.6182H50.4157V33.6182H5.8623V37.6182ZM85.4896 37.6182H115.35V33.6182H85.4896V37.6182Z" fill="#F55673"/>
<path d="M12.6504 28.5463C11.3307 28.5463 10.1429 28.2164 9.08709 27.5565C8.03129 26.8702 7.19984 25.9464 6.59275 24.785C5.98566 23.6236 5.68212 22.3171 5.68212 20.8653V11.086H3.86086C3.30656 11.086 2.85784 10.9276 2.5147 10.6108C2.17157 10.2941 2 9.89817 2 9.42306C2 8.89516 2.17157 8.47283 2.5147 8.15609C2.85784 7.83935 3.30656 7.68098 3.86086 7.68098H5.68212V1.97963C5.68212 1.39894 5.86689 0.923829 6.23642 0.554297C6.60595 0.184766 7.08106 0 7.66175 0C8.24245 0 8.71756 0.184766 9.08709 0.554297C9.45662 0.923829 9.64139 1.39894 9.64139 1.97963V7.68098H13.0068C13.5611 7.68098 14.0098 7.83935 14.3529 8.15609C14.6961 8.47283 14.8676 8.89516 14.8676 9.42306C14.8676 9.89817 14.6961 10.2941 14.3529 10.6108C14.0098 10.9276 13.5611 11.086 13.0068 11.086H9.64139V20.8653C9.64139 21.9212 9.93174 22.8054 10.5124 23.5181C11.0931 24.2307 11.8058 24.5871 12.6504 24.5871H13.9966C14.4717 24.5871 14.8676 24.7718 15.1844 25.1414C15.5275 25.5109 15.6991 25.986 15.6991 26.5667C15.6991 27.1474 15.4747 27.6225 15.026 27.992C14.6037 28.3616 14.0494 28.5463 13.3631 28.5463H12.6504Z" fill="#F55673"/>
<path d="M27.6713 28.7047C25.7445 28.7047 24.0156 28.2296 22.4847 27.2794C20.9538 26.3027 19.7396 24.9962 18.8421 23.3597C17.9711 21.6968 17.5356 19.8227 17.5356 17.7375C17.5356 15.6523 18.0107 13.7783 18.9609 12.1154C19.9375 10.4525 21.2441 9.14591 22.8806 8.19569C24.5435 7.21907 26.4044 6.73076 28.4632 6.73076C30.522 6.73076 32.3697 7.21907 34.0062 8.19569C35.6427 9.14591 36.936 10.4525 37.8862 12.1154C38.8629 13.7783 39.3512 15.6523 39.3512 17.7375V26.5667C39.3512 27.1474 39.1532 27.6357 38.7573 28.0316C38.3877 28.4012 37.9126 28.5859 37.3319 28.5859C36.7513 28.5859 36.2629 28.4012 35.867 28.0316C35.4975 27.6357 35.3127 27.1474 35.3127 26.5667V25.1018C34.3889 26.2104 33.2671 27.0946 31.9473 27.7545C30.654 28.388 29.2286 28.7047 27.6713 28.7047ZM28.4632 25.1414C29.8093 25.1414 31.0103 24.8246 32.0661 24.1911C33.1219 23.5313 33.9534 22.647 34.5605 21.5384C35.1675 20.4034 35.4711 19.1365 35.4711 17.7375C35.4711 16.3122 35.1675 15.0452 34.5605 13.9366C33.9534 12.8016 33.1219 11.9174 32.0661 11.2839C31.0103 10.624 29.8093 10.2941 28.4632 10.2941C27.1434 10.2941 25.9424 10.624 24.8602 11.2839C23.8044 11.9174 22.9598 12.8016 22.3263 13.9366C21.7192 15.0452 21.4157 16.3122 21.4157 17.7375C21.4157 19.1365 21.7192 20.4034 22.3263 21.5384C22.9598 22.647 23.8044 23.5313 24.8602 24.1911C25.9424 24.8246 27.1434 25.1414 28.4632 25.1414Z" fill="#F55673"/>
<path d="M45.3227 28.5463C44.0029 28.5463 43.343 27.8864 43.343 26.5667V8.86876C43.343 7.549 44.0029 6.88913 45.3227 6.88913C46.6424 6.88913 47.3023 7.549 47.3023 8.86876V9.62102C48.0941 8.69719 49.0576 7.97133 50.1926 7.44342C51.3539 6.91552 52.6077 6.65157 53.9539 6.65157C55.5376 6.65157 56.7121 6.91552 57.4776 7.44342C58.2695 7.94493 58.573 8.55202 58.3882 9.26469C58.2563 9.81898 57.9923 10.1885 57.5964 10.3733C57.2005 10.5317 56.7385 10.558 56.2106 10.4525C54.5213 10.1093 53.0036 10.0829 51.6575 10.3733C50.3113 10.6636 49.2423 11.2047 48.4505 11.9966C47.685 12.7884 47.3023 13.7915 47.3023 15.0056V26.5667C47.3023 27.8864 46.6424 28.5463 45.3227 28.5463Z" fill="#F55673"/>
<path d="M69.0307 28.7047C67.051 28.7047 65.2958 28.2428 63.7648 27.319C62.2603 26.3687 61.0725 25.0754 60.2015 23.4389C59.3305 21.776 58.895 19.8755 58.895 17.7375C58.895 15.5731 59.3569 13.6727 60.2807 12.0362C61.2309 10.3733 62.5243 9.07992 64.1608 8.15609C65.7973 7.20587 67.6845 6.73076 69.8225 6.73076C71.9341 6.73076 73.8082 7.20587 75.4447 8.15609C77.0812 9.07992 78.3614 10.3733 79.2852 12.0362C80.2354 13.6727 80.7105 15.5731 80.7105 17.7375V26.2895C80.7105 28.3748 80.2486 30.262 79.3248 31.9513C78.401 33.667 77.1076 35.0263 75.4447 36.0293C73.8082 37.0324 71.9077 37.5339 69.7433 37.5339C67.8693 37.5339 66.114 37.1643 64.4775 36.4253C62.841 35.6862 61.4553 34.604 60.3203 33.1787C59.9772 32.7299 59.8452 32.268 59.9244 31.7929C60.0299 31.3178 60.2939 30.9351 60.7162 30.6447C61.1913 30.328 61.6796 30.2224 62.1811 30.328C62.709 30.4336 63.1314 30.6975 63.4481 31.1199C64.1608 32.0173 65.0582 32.7168 66.1404 33.2183C67.2226 33.7198 68.45 33.9705 69.8225 33.9705C71.0895 33.9705 72.2509 33.667 73.3067 33.0599C74.3889 32.4528 75.2467 31.5554 75.8802 30.3676C76.5137 29.1798 76.8304 27.7281 76.8304 26.0124V24.0724C76.0122 25.4977 74.93 26.6327 73.5838 27.4773C72.2377 28.2956 70.72 28.7047 69.0307 28.7047ZM69.8225 25.1414C71.1951 25.1414 72.4093 24.8246 73.4651 24.1911C74.5209 23.5576 75.3391 22.6866 75.9198 21.578C76.5269 20.4694 76.8304 19.1893 76.8304 17.7375C76.8304 16.2858 76.5269 15.0056 75.9198 13.897C75.3391 12.762 74.5209 11.8778 73.4651 11.2443C72.4093 10.6108 71.1951 10.2941 69.8225 10.2941C68.45 10.2941 67.2358 10.6108 66.18 11.2443C65.1242 11.8778 64.2928 12.762 63.6857 13.897C63.0786 15.0056 62.775 16.2858 62.775 17.7375C62.775 19.1893 63.0786 20.4694 63.6857 21.578C64.2928 22.6866 65.1242 23.5576 66.18 24.1911C67.2358 24.8246 68.45 25.1414 69.8225 25.1414Z" fill="#F55673"/>
<path d="M94.8777 28.7047C92.6869 28.7047 90.7337 28.2428 89.018 27.319C87.3287 26.3687 85.9957 25.0754 85.0191 23.4389C84.0689 21.776 83.5938 19.8755 83.5938 17.7375C83.5938 15.5731 84.0425 13.6727 84.9399 12.0362C85.8638 10.3733 87.1307 9.07992 88.7408 8.15609C90.3509 7.20587 92.1986 6.73076 94.2838 6.73076C96.3426 6.73076 98.1111 7.19267 99.5892 8.1165C101.067 9.01393 102.189 10.2677 102.955 11.8778C103.746 13.4615 104.142 15.296 104.142 17.3812C104.142 17.8827 103.971 18.305 103.628 18.6482C103.285 18.9649 102.849 19.1233 102.321 19.1233H87.2759C87.5662 20.9445 88.3977 22.4359 89.7702 23.5972C91.1692 24.7322 92.8717 25.2997 94.8777 25.2997C95.6959 25.2997 96.5274 25.1546 97.372 24.8642C98.2431 24.5475 98.9425 24.1911 99.4704 23.7952C99.8664 23.5049 100.289 23.3597 100.737 23.3597C101.213 23.3333 101.622 23.4653 101.965 23.7556C102.413 24.1515 102.651 24.5871 102.677 25.0622C102.704 25.5373 102.493 25.9464 102.044 26.2895C101.147 27.0022 100.025 27.5829 98.6786 28.0316C97.3588 28.4803 96.0919 28.7047 94.8777 28.7047ZM94.2838 10.1357C92.3306 10.1357 90.7601 10.6768 89.5723 11.759C88.3845 12.8412 87.6322 14.2402 87.3155 15.9559H100.5C100.262 14.2666 99.6156 12.8808 98.5598 11.7986C97.504 10.69 96.0787 10.1357 94.2838 10.1357Z" fill="#F55673"/>
<path d="M116.163 28.5463C114.843 28.5463 113.655 28.2164 112.599 27.5565C111.544 26.8702 110.712 25.9464 110.105 24.785C109.498 23.6236 109.195 22.3171 109.195 20.8653V11.086H107.373C106.819 11.086 106.37 10.9276 106.027 10.6108C105.684 10.2941 105.512 9.89817 105.512 9.42306C105.512 8.89516 105.684 8.47283 106.027 8.15609C106.37 7.83935 106.819 7.68098 107.373 7.68098H109.195V1.97963C109.195 1.39894 109.379 0.923829 109.749 0.554297C110.118 0.184766 110.593 0 111.174 0C111.755 0 112.23 0.184766 112.599 0.554297C112.969 0.923829 113.154 1.39894 113.154 1.97963V7.68098H116.519C117.073 7.68098 117.522 7.83935 117.865 8.15609C118.208 8.47283 118.38 8.89516 118.38 9.42306C118.38 9.89817 118.208 10.2941 117.865 10.6108C117.522 10.9276 117.073 11.086 116.519 11.086H113.154V20.8653C113.154 21.9212 113.444 22.8054 114.025 23.5181C114.606 24.2307 115.318 24.5871 116.163 24.5871H117.509C117.984 24.5871 118.38 24.7718 118.697 25.1414C119.04 25.5109 119.211 25.986 119.211 26.5667C119.211 27.1474 118.987 27.6225 118.538 27.992C118.116 28.3616 117.562 28.5463 116.876 28.5463H116.163Z" fill="#F55673"/>
<path d="M27.6713 28.7047C25.7445 28.7047 24.0156 28.2296 22.4847 27.2794C20.9538 26.3027 19.7396 24.9962 18.8421 23.3597C17.9711 21.6968 17.5356 19.8227 17.5356 17.7375C17.5356 15.6523 18.0107 13.7783 18.9609 12.1154C19.9375 10.4525 21.2441 9.14591 22.8806 8.19569C24.5435 7.21907 26.4044 6.73076 28.4632 6.73076C30.522 6.73076 32.3697 7.21907 34.0062 8.19569C35.6427 9.14591 36.936 10.4525 37.8862 12.1154C38.8629 13.7783 39.3512 15.6523 39.3512 17.7375V26.5667C39.3512 27.1474 39.1532 27.6357 38.7573 28.0316C38.3877 28.4012 37.9126 28.5859 37.3319 28.5859C36.7513 28.5859 36.2629 28.4012 35.867 28.0316C35.4975 27.6357 35.3127 27.1474 35.3127 26.5667V25.1018C34.3889 26.2104 33.2671 27.0946 31.9473 27.7545C30.654 28.388 29.2286 28.7047 27.6713 28.7047ZM28.4632 25.1414C29.8093 25.1414 31.0103 24.8246 32.0661 24.1911C33.1219 23.5313 33.9534 22.647 34.5605 21.5384C35.1675 20.4034 35.4711 19.1365 35.4711 17.7375C35.4711 16.3122 35.1675 15.0452 34.5605 13.9366C33.9534 12.8016 33.1219 11.9174 32.0661 11.2839C31.0103 10.624 29.8093 10.2941 28.4632 10.2941C27.1434 10.2941 25.9424 10.624 24.8602 11.2839C23.8044 11.9174 22.9598 12.8016 22.3263 13.9366C21.7192 15.0452 21.4157 16.3122 21.4157 17.7375C21.4157 19.1365 21.7192 20.4034 22.3263 21.5384C22.9598 22.647 23.8044 23.5313 24.8602 24.1911C25.9424 24.8246 27.1434 25.1414 28.4632 25.1414Z" fill="#F55673"/>
</svg>
