<svg width="32" height="28" viewBox="0 0 32 28" fill="none" xmlns="http://www.w3.org/2000/svg">
<path d="M17 8.02344H19.25V14.3516L24.5234 17.5156L23.3984 19.3438L17 15.4766V8.02344ZM8.91406 4.4375C11.5859 1.8125 14.7734 0.5 18.4766 0.5C22.1797 0.5 25.3438 1.8125 27.9688 4.4375C30.6406 7.0625 31.9766 10.25 31.9766 14C31.9766 17.75 30.6406 20.9375 27.9688 23.5625C25.3438 26.1875 22.1797 27.5 18.4766 27.5C16.9297 27.5 15.2188 27.125 13.3438 26.375C11.5156 25.5781 10.0625 24.6406 8.98438 23.5625L11.0938 21.3828C13.1562 23.4453 15.6172 24.4766 18.4766 24.4766C21.3828 24.4766 23.8672 23.4688 25.9297 21.4531C27.9922 19.3906 29.0234 16.9062 29.0234 14C29.0234 11.0938 27.9922 8.63281 25.9297 6.61719C23.8672 4.55469 21.3828 3.52344 18.4766 3.52344C15.5703 3.52344 13.0859 4.55469 11.0234 6.61719C9.00781 8.63281 8 11.0938 8 14H12.5L6.45312 20.0469L6.3125 19.8359L0.476562 14H4.97656C4.97656 10.25 6.28906 7.0625 8.91406 4.4375Z" fill="#535EE6"/>
</svg>
