<svg width="19" height="19" viewBox="0 0 19 19" fill="none" xmlns="http://www.w3.org/2000/svg">
<path d="M13.7622 12.0156H12.9653L12.6841 11.7344C13.856 10.3281 14.5122 8.40625 14.1372 6.39062C13.6685 3.625 11.3716 1.375 8.55908 1.04688C4.34033 0.53125 0.777832 4.09375 1.29346 8.3125C1.62158 11.125 3.87158 13.4219 6.63721 13.8906C8.65283 14.2656 10.5747 13.6094 11.981 12.4375L12.2622 12.7188V13.5156L16.481 17.7344C16.9028 18.1562 17.5591 18.1562 17.981 17.7344C18.4028 17.3594 18.4028 16.6562 17.981 16.2812L13.7622 12.0156ZM7.76221 12.0156C5.27783 12.0156 3.26221 10 3.26221 7.51562C3.26221 5.03125 5.27783 3.01562 7.76221 3.01562C10.2466 3.01562 12.2622 5.03125 12.2622 7.51562C12.2622 10 10.2466 12.0156 7.76221 12.0156Z" fill="#7E8086"/>
</svg>
